<svg xmlns="http://www.w3.org/2000/svg" width="1500" height="500" viewBox="0 0 1500 500">
  <defs>
    <linearGradient id="bg" x1="0%" y1="50%" x2="100%" y2="50%">
      <stop offset="0%" stop-color="#070b14"/>
      <stop offset="55%" stop-color="#0c1e36"/>
      <stop offset="100%" stop-color="#082f49"/>
    </linearGradient>
  </defs>
  <rect width="1500" height="500" fill="url(#bg)"/>
  <g opacity="0.4">
    <rect x="980" y="90" width="70" height="70" rx="8" fill="#155e75"/>
    <rect x="1060" y="90" width="70" height="70" rx="8" fill="#22d3ee"/>
    <rect x="1140" y="90" width="70" height="70" rx="8" fill="#0e7490"/>
    <rect x="1220" y="90" width="70" height="70" rx="8" fill="#164e63"/>
    <rect x="980" y="170" width="70" height="70" rx="8" fill="#0ea5e9"/>
    <rect x="1060" y="170" width="70" height="70" rx="8" fill="#67e8f9"/>
    <rect x="1140" y="170" width="70" height="70" rx="8" fill="#38bdf8"/>
    <rect x="1220" y="170" width="70" height="70" rx="8" fill="#083344"/>
    <rect x="980" y="250" width="70" height="70" rx="8" fill="#083344"/>
    <rect x="1060" y="250" width="70" height="70" rx="8" fill="#155e75"/>
    <rect x="1140" y="250" width="70" height="70" rx="8" fill="#2dd4bf"/>
    <rect x="1220" y="250" width="70" height="70" rx="8" fill="#0e7490"/>
    <rect x="980" y="330" width="70" height="70" rx="8" fill="#164e63"/>
    <rect x="1060" y="330" width="70" height="70" rx="8" fill="#0c4a6e"/>
    <rect x="1140" y="330" width="70" height="70" rx="8" fill="#155e75"/>
    <rect x="1220" y="330" width="70" height="70" rx="8" fill="#22d3ee"/>
  </g>
  <text x="80" y="200" fill="#ffffff" font-family="Segoe UI, Helvetica, Arial, sans-serif" font-size="56" font-weight="700">Cryptographic Mosaic</text>
  <text x="80" y="270" fill="#94a3b8" font-family="Segoe UI, Helvetica, Arial, sans-serif" font-size="28">Sensory 2FA for XRPL  mosaic · sound · Soulbound NFT</text>
  <text x="80" y="380" fill="#38bdf8" font-family="Consolas, monospace" font-size="22">mosaico-criptografico.vercel.app</text>
</svg>
